# xmcd
#
# Track frame offsets: 
#        150
#        24309
#        38452
#        75849
#        92133
#        105146
#        117834
#        132138
#        146509
#        156975
#        172893
#        185095
#        204669
#        212878
#        231421
#
# Disc length: 3201 seconds
#
# Revision: 0
# Processed by: cddbd v1.4PL0 Copyright (c) Steve Scherf et al.
# Submitted via: ExactAudioCopy v0.90a11
#
DISCID=bb0c7f0f
DTITLE=Willie Nelson and Family - Live in Amsterdam - disk 1
DYEAR=1900
DGENRE=
TTITLE0=Whiskey River \\ Stay All night
TTITLE1=Good hearted woman
TTITLE2=Funny How time ... \\ Crazy \\ Night Life
TTITLE3=Help me make it through the night
TTITLE4=Fast Train To Georgia
TTITLE5=Blue eyes crying in the rain
TTITLE6=Blue Skies
TTITLE7=Georgia on my mind
TTITLE8=All of me
TTITLE9=Stardust
TTITLE10=Me and Paul
TTITLE11=the Gypsy
TTITLE12=If you've got the money, I've got the time
TTITLE13=My bucket's got a hole in it \\ Jambalaya
TTITLE14=Walkin' the floor with you
EXTD=
EXTT0=
EXTT1=
EXTT2=
EXTT3=
EXTT4=
EXTT5=
EXTT6=
EXTT7=
EXTT8=
EXTT9=
EXTT10=
EXTT11=
EXTT12=
EXTT13=
EXTT14=
PLAYORDER=
